<svg xmlns="http://www.w3.org/2000/svg" width="18" height="18">
    <path fill="#FFF" fill-rule="evenodd" d="M17.49 3.56h-3.582c-.2 1.05-1.104 1.823-2.516 1.845-1.195.019-2.316-.792-2.517-1.845H.505c-.281 0-.506-.603-.506-.855s.225-.856.506-.856h8.37C9.076.8 10.337.005 11.392.005c1.269 0 2.316.795 2.516 1.844h3.582c.28 0 .506.604.506.856s-.226.855-.506.855zm-6.098-2.247c-.727 0-1.318.624-1.318 1.392 0 .768.591 1.392 1.318 1.392.728 0 1.318-.624 1.318-1.392 0-.768-.59-1.392-1.318-1.392zm6.101 8.547h-8.37c-.2 1.054-1.322 1.864-2.516 1.845-1.413-.022-2.317-.795-2.517-1.845H.509c-.281 0-.506-.604-.506-.855 0-.252.225-.856.506-.856H4.09c.2-1.049 1.247-1.844 2.517-1.844 1.054 0 2.316.795 2.516 1.844h8.37c.281 0 .506.604.506.856 0 .251-.225.855-.506.855zM6.607 7.613c-.728 0-1.319.624-1.319 1.392 0 .768.591 1.392 1.319 1.392.727 0 1.318-.624 1.318-1.392 0-.768-.591-1.392-1.318-1.392zM.505 14.449h8.37c.201-1.049 1.462-1.844 2.517-1.844 1.269 0 2.316.795 2.516 1.844h3.582c.28 0 .506.604.506.856 0 .251-.226.855-.506.855h-3.582c-.2 1.05-1.104 1.823-2.516 1.845-1.195.019-2.316-.791-2.517-1.845H.505c-.281 0-.506-.604-.506-.855 0-.252.225-.856.506-.856zm10.887 2.248c.728 0 1.318-.624 1.318-1.392 0-.768-.59-1.392-1.318-1.392-.727 0-1.318.624-1.318 1.392 0 .768.591 1.392 1.318 1.392z"/>
</svg>
