<svg xmlns="http://www.w3.org/2000/svg" width="25" height="21">
    <path fill="#FF4C01" fill-rule="evenodd" d="M21.826 14.738a3.21 3.21 0 0 0-.771.094l-6.129-9.686a3.092 3.092 0 0 0 .748-2.016C15.674 1.404 14.25 0 12.5 0S9.326 1.404 9.326 3.13c0 .768.281 1.471.747 2.016l-6.129 9.686a3.209 3.209 0 0 0-.77-.094C1.424 14.738 0 16.143 0 17.869 0 19.595 1.424 21 3.174 21a3.174 3.174 0 0 0 3.019-2.168H9.48A3.175 3.175 0 0 0 12.5 21a3.174 3.174 0 0 0 3.019-2.168h3.288A3.173 3.173 0 0 0 21.826 21C23.576 21 25 19.595 25 17.869c0-1.726-1.424-3.131-3.174-3.131zM3.174 19.073c-.674 0-1.221-.54-1.221-1.204 0-.664.547-1.204 1.221-1.204.673 0 1.22.54 1.22 1.204 0 .664-.547 1.204-1.22 1.204zM12.5 1.926c.673 0 1.22.541 1.22 1.204 0 .664-.547 1.205-1.22 1.205a1.215 1.215 0 0 1-1.221-1.205c0-.663.548-1.204 1.221-1.204zm-3.02 14.98H6.193a3.107 3.107 0 0 0-.593-1.052l5.923-9.361v8.398a3.165 3.165 0 0 0-2.043 2.015zm3.02 2.167c-.673 0-1.221-.54-1.221-1.204 0-.664.548-1.204 1.221-1.204s1.22.54 1.22 1.204c0 .664-.547 1.204-1.22 1.204zm6.307-2.167h-3.288a3.163 3.163 0 0 0-2.043-2.015V6.493l5.923 9.361a3.121 3.121 0 0 0-.592 1.052zm3.019 2.167c-.673 0-1.221-.54-1.221-1.204 0-.664.548-1.204 1.221-1.204s1.221.54 1.221 1.204c0 .664-.548 1.204-1.221 1.204z"/>
</svg>
